<mxfile host="app.diagrams.net" modified="2023-11-30T14:23:44.998Z" agent="Mozilla/5.0 (Windows NT 10.0; Win64; x64) AppleWebKit/537.36 (KHTML, like Gecko) Chrome/119.0.0.0 Safari/537.36" etag="ATGq0UeiY5K-ik9JwzEJ" version="22.1.5" type="device">
  <diagram name="Page-1" id="aCiCUywvJL0bk7FQ87Bg">
    <mxGraphModel dx="1434" dy="758" grid="1" gridSize="10" guides="1" tooltips="1" connect="1" arrows="1" fold="1" page="1" pageScale="1" pageWidth="827" pageHeight="1169" math="0" shadow="0">
      <root>
        <mxCell id="0" />
        <mxCell id="1" parent="0" />
        <mxCell id="RYP4-DE4dK7c4bQPlyVr-72" style="edgeStyle=orthogonalEdgeStyle;rounded=0;orthogonalLoop=1;jettySize=auto;html=1;exitX=0.5;exitY=1;exitDx=0;exitDy=0;entryX=0;entryY=0.5;entryDx=0;entryDy=0;" edge="1" parent="1" source="RYP4-DE4dK7c4bQPlyVr-7" target="RYP4-DE4dK7c4bQPlyVr-71">
          <mxGeometry relative="1" as="geometry" />
        </mxCell>
        <mxCell id="RYP4-DE4dK7c4bQPlyVr-7" value="drawing cards&lt;br&gt;2 for me&lt;br&gt;1 for casino" style="rounded=1;whiteSpace=wrap;html=1;sketch=1;curveFitting=1;jiggle=2;" vertex="1" parent="1">
          <mxGeometry x="110" y="150" width="120" height="60" as="geometry" />
        </mxCell>
        <mxCell id="RYP4-DE4dK7c4bQPlyVr-73" style="edgeStyle=orthogonalEdgeStyle;rounded=0;orthogonalLoop=1;jettySize=auto;html=1;exitX=0.5;exitY=0;exitDx=0;exitDy=0;entryX=0.5;entryY=0;entryDx=0;entryDy=0;" edge="1" parent="1" source="RYP4-DE4dK7c4bQPlyVr-13" target="RYP4-DE4dK7c4bQPlyVr-71">
          <mxGeometry relative="1" as="geometry" />
        </mxCell>
        <mxCell id="RYP4-DE4dK7c4bQPlyVr-13" value="drawing additional card" style="rounded=1;whiteSpace=wrap;html=1;sketch=1;curveFitting=1;jiggle=2;" vertex="1" parent="1">
          <mxGeometry x="420" y="200" width="120" height="60" as="geometry" />
        </mxCell>
        <mxCell id="RYP4-DE4dK7c4bQPlyVr-27" style="edgeStyle=orthogonalEdgeStyle;rounded=0;orthogonalLoop=1;jettySize=auto;html=1;exitX=1;exitY=0.5;exitDx=0;exitDy=0;entryX=0;entryY=0.5;entryDx=0;entryDy=0;" edge="1" parent="1" source="RYP4-DE4dK7c4bQPlyVr-22" target="RYP4-DE4dK7c4bQPlyVr-26">
          <mxGeometry relative="1" as="geometry" />
        </mxCell>
        <mxCell id="RYP4-DE4dK7c4bQPlyVr-28" value="Yes" style="edgeLabel;html=1;align=center;verticalAlign=middle;resizable=0;points=[];" vertex="1" connectable="0" parent="RYP4-DE4dK7c4bQPlyVr-27">
          <mxGeometry x="-0.2348" y="1" relative="1" as="geometry">
            <mxPoint as="offset" />
          </mxGeometry>
        </mxCell>
        <mxCell id="RYP4-DE4dK7c4bQPlyVr-37" style="edgeStyle=orthogonalEdgeStyle;rounded=0;orthogonalLoop=1;jettySize=auto;html=1;exitX=0.5;exitY=1;exitDx=0;exitDy=0;entryX=0.5;entryY=0;entryDx=0;entryDy=0;" edge="1" parent="1" source="RYP4-DE4dK7c4bQPlyVr-22" target="RYP4-DE4dK7c4bQPlyVr-36">
          <mxGeometry relative="1" as="geometry" />
        </mxCell>
        <mxCell id="RYP4-DE4dK7c4bQPlyVr-22" value="is sum of Your cards &amp;gt; 21" style="shape=hexagon;perimeter=hexagonPerimeter2;whiteSpace=wrap;html=1;fixedSize=1;sketch=1;curveFitting=1;jiggle=2;" vertex="1" parent="1">
          <mxGeometry x="180" y="390" width="120" height="80" as="geometry" />
        </mxCell>
        <mxCell id="RYP4-DE4dK7c4bQPlyVr-25" value="Game Done" style="ellipse;whiteSpace=wrap;html=1;fillColor=#e1d5e7;strokeColor=#9673a6;shadow=0;sketch=1;curveFitting=1;jiggle=2;" vertex="1" parent="1">
          <mxGeometry x="450" y="20" width="120" height="80" as="geometry" />
        </mxCell>
        <mxCell id="RYP4-DE4dK7c4bQPlyVr-26" value="Game&amp;nbsp; over" style="ellipse;whiteSpace=wrap;html=1;fillColor=#f8cecc;strokeColor=#b85450;sketch=1;curveFitting=1;jiggle=2;" vertex="1" parent="1">
          <mxGeometry x="420" y="410" width="120" height="80" as="geometry" />
        </mxCell>
        <mxCell id="RYP4-DE4dK7c4bQPlyVr-32" style="edgeStyle=orthogonalEdgeStyle;rounded=0;orthogonalLoop=1;jettySize=auto;html=1;exitX=0.5;exitY=1;exitDx=0;exitDy=0;entryX=0.5;entryY=0;entryDx=0;entryDy=0;" edge="1" parent="1" source="RYP4-DE4dK7c4bQPlyVr-31" target="RYP4-DE4dK7c4bQPlyVr-26">
          <mxGeometry relative="1" as="geometry" />
        </mxCell>
        <mxCell id="RYP4-DE4dK7c4bQPlyVr-33" value="Yes" style="edgeLabel;html=1;align=center;verticalAlign=middle;resizable=0;points=[];" vertex="1" connectable="0" parent="RYP4-DE4dK7c4bQPlyVr-32">
          <mxGeometry x="-0.0333" y="5" relative="1" as="geometry">
            <mxPoint as="offset" />
          </mxGeometry>
        </mxCell>
        <mxCell id="RYP4-DE4dK7c4bQPlyVr-34" style="edgeStyle=orthogonalEdgeStyle;rounded=0;orthogonalLoop=1;jettySize=auto;html=1;exitX=0.5;exitY=0;exitDx=0;exitDy=0;entryX=0.5;entryY=1;entryDx=0;entryDy=0;" edge="1" parent="1" source="RYP4-DE4dK7c4bQPlyVr-31" target="RYP4-DE4dK7c4bQPlyVr-13">
          <mxGeometry relative="1" as="geometry" />
        </mxCell>
        <mxCell id="RYP4-DE4dK7c4bQPlyVr-35" value="No" style="edgeLabel;html=1;align=center;verticalAlign=middle;resizable=0;points=[];" vertex="1" connectable="0" parent="RYP4-DE4dK7c4bQPlyVr-34">
          <mxGeometry x="0.4" y="4" relative="1" as="geometry">
            <mxPoint as="offset" />
          </mxGeometry>
        </mxCell>
        <mxCell id="RYP4-DE4dK7c4bQPlyVr-31" value="is sum of Your cards &amp;gt; 21" style="shape=hexagon;perimeter=hexagonPerimeter2;whiteSpace=wrap;html=1;fixedSize=1;sketch=1;curveFitting=1;jiggle=2;" vertex="1" parent="1">
          <mxGeometry x="420" y="290" width="120" height="70" as="geometry" />
        </mxCell>
        <mxCell id="RYP4-DE4dK7c4bQPlyVr-39" value="No" style="edgeStyle=orthogonalEdgeStyle;rounded=0;orthogonalLoop=1;jettySize=auto;html=1;exitX=1;exitY=0.5;exitDx=0;exitDy=0;entryX=0;entryY=0.5;entryDx=0;entryDy=0;" edge="1" parent="1" source="RYP4-DE4dK7c4bQPlyVr-36" target="RYP4-DE4dK7c4bQPlyVr-38">
          <mxGeometry relative="1" as="geometry" />
        </mxCell>
        <mxCell id="RYP4-DE4dK7c4bQPlyVr-47" style="edgeStyle=orthogonalEdgeStyle;rounded=0;orthogonalLoop=1;jettySize=auto;html=1;exitX=0.5;exitY=1;exitDx=0;exitDy=0;entryX=0.5;entryY=0;entryDx=0;entryDy=0;" edge="1" parent="1" source="RYP4-DE4dK7c4bQPlyVr-36" target="RYP4-DE4dK7c4bQPlyVr-43">
          <mxGeometry relative="1" as="geometry" />
        </mxCell>
        <mxCell id="RYP4-DE4dK7c4bQPlyVr-36" value="is casino sum card &amp;gt;17" style="shape=hexagon;perimeter=hexagonPerimeter2;whiteSpace=wrap;html=1;fixedSize=1;sketch=1;curveFitting=1;jiggle=2;" vertex="1" parent="1">
          <mxGeometry x="180" y="540" width="120" height="80" as="geometry" />
        </mxCell>
        <mxCell id="RYP4-DE4dK7c4bQPlyVr-41" style="edgeStyle=orthogonalEdgeStyle;rounded=0;orthogonalLoop=1;jettySize=auto;html=1;exitX=0.5;exitY=0;exitDx=0;exitDy=0;entryX=0.625;entryY=0;entryDx=0;entryDy=0;" edge="1" parent="1" source="RYP4-DE4dK7c4bQPlyVr-38" target="RYP4-DE4dK7c4bQPlyVr-36">
          <mxGeometry relative="1" as="geometry" />
        </mxCell>
        <mxCell id="RYP4-DE4dK7c4bQPlyVr-38" value="drawing additional card" style="rounded=1;whiteSpace=wrap;html=1;sketch=1;curveFitting=1;jiggle=2;" vertex="1" parent="1">
          <mxGeometry x="400" y="560" width="120" height="60" as="geometry" />
        </mxCell>
        <mxCell id="RYP4-DE4dK7c4bQPlyVr-46" style="edgeStyle=orthogonalEdgeStyle;rounded=0;orthogonalLoop=1;jettySize=auto;html=1;exitX=1;exitY=0.5;exitDx=0;exitDy=0;entryX=0;entryY=0.5;entryDx=0;entryDy=0;" edge="1" parent="1" source="RYP4-DE4dK7c4bQPlyVr-43" target="RYP4-DE4dK7c4bQPlyVr-45">
          <mxGeometry relative="1" as="geometry" />
        </mxCell>
        <mxCell id="RYP4-DE4dK7c4bQPlyVr-48" value="Yes" style="edgeLabel;html=1;align=center;verticalAlign=middle;resizable=0;points=[];" vertex="1" connectable="0" parent="RYP4-DE4dK7c4bQPlyVr-46">
          <mxGeometry x="-0.1826" y="-5" relative="1" as="geometry">
            <mxPoint as="offset" />
          </mxGeometry>
        </mxCell>
        <mxCell id="RYP4-DE4dK7c4bQPlyVr-52" style="edgeStyle=orthogonalEdgeStyle;rounded=0;orthogonalLoop=1;jettySize=auto;html=1;exitX=0.5;exitY=1;exitDx=0;exitDy=0;entryX=0.5;entryY=0;entryDx=0;entryDy=0;" edge="1" parent="1" source="RYP4-DE4dK7c4bQPlyVr-43" target="RYP4-DE4dK7c4bQPlyVr-51">
          <mxGeometry relative="1" as="geometry" />
        </mxCell>
        <mxCell id="RYP4-DE4dK7c4bQPlyVr-43" value="is casion over &amp;gt;21" style="shape=hexagon;perimeter=hexagonPerimeter2;whiteSpace=wrap;html=1;fixedSize=1;sketch=1;curveFitting=1;jiggle=2;" vertex="1" parent="1">
          <mxGeometry x="180" y="680" width="120" height="80" as="geometry" />
        </mxCell>
        <mxCell id="RYP4-DE4dK7c4bQPlyVr-45" value="You Won!!" style="ellipse;whiteSpace=wrap;html=1;fillColor=#d5e8d4;strokeColor=#82b366;shadow=0;sketch=1;curveFitting=1;jiggle=2;" vertex="1" parent="1">
          <mxGeometry x="400" y="680" width="120" height="80" as="geometry" />
        </mxCell>
        <mxCell id="RYP4-DE4dK7c4bQPlyVr-56" style="edgeStyle=orthogonalEdgeStyle;rounded=0;orthogonalLoop=1;jettySize=auto;html=1;exitX=1;exitY=0.5;exitDx=0;exitDy=0;entryX=0;entryY=0.5;entryDx=0;entryDy=0;" edge="1" parent="1" source="RYP4-DE4dK7c4bQPlyVr-51" target="RYP4-DE4dK7c4bQPlyVr-53">
          <mxGeometry relative="1" as="geometry" />
        </mxCell>
        <mxCell id="RYP4-DE4dK7c4bQPlyVr-58" value="Yes" style="edgeLabel;html=1;align=center;verticalAlign=middle;resizable=0;points=[];" vertex="1" connectable="0" parent="RYP4-DE4dK7c4bQPlyVr-56">
          <mxGeometry x="0.4769" y="1" relative="1" as="geometry">
            <mxPoint as="offset" />
          </mxGeometry>
        </mxCell>
        <mxCell id="RYP4-DE4dK7c4bQPlyVr-57" style="edgeStyle=orthogonalEdgeStyle;rounded=0;orthogonalLoop=1;jettySize=auto;html=1;exitX=1;exitY=0.5;exitDx=0;exitDy=0;entryX=0;entryY=0.5;entryDx=0;entryDy=0;" edge="1" parent="1" source="RYP4-DE4dK7c4bQPlyVr-51" target="RYP4-DE4dK7c4bQPlyVr-55">
          <mxGeometry relative="1" as="geometry" />
        </mxCell>
        <mxCell id="RYP4-DE4dK7c4bQPlyVr-59" value="No" style="edgeLabel;html=1;align=center;verticalAlign=middle;resizable=0;points=[];" vertex="1" connectable="0" parent="RYP4-DE4dK7c4bQPlyVr-57">
          <mxGeometry x="0.5143" y="-2" relative="1" as="geometry">
            <mxPoint as="offset" />
          </mxGeometry>
        </mxCell>
        <mxCell id="RYP4-DE4dK7c4bQPlyVr-80" style="edgeStyle=orthogonalEdgeStyle;rounded=0;orthogonalLoop=1;jettySize=auto;html=1;exitX=0.5;exitY=1;exitDx=0;exitDy=0;entryX=0.5;entryY=0;entryDx=0;entryDy=0;" edge="1" parent="1" source="RYP4-DE4dK7c4bQPlyVr-51" target="RYP4-DE4dK7c4bQPlyVr-78">
          <mxGeometry relative="1" as="geometry" />
        </mxCell>
        <mxCell id="RYP4-DE4dK7c4bQPlyVr-51" value="is You closer to 21 than casino" style="shape=hexagon;perimeter=hexagonPerimeter2;whiteSpace=wrap;html=1;fixedSize=1;sketch=1;curveFitting=1;jiggle=2;" vertex="1" parent="1">
          <mxGeometry x="180" y="820" width="120" height="80" as="geometry" />
        </mxCell>
        <mxCell id="RYP4-DE4dK7c4bQPlyVr-53" value="You Won!!" style="ellipse;whiteSpace=wrap;html=1;fillColor=#d5e8d4;strokeColor=#82b366;shadow=0;sketch=1;curveFitting=1;jiggle=2;" vertex="1" parent="1">
          <mxGeometry x="390" y="780" width="120" height="80" as="geometry" />
        </mxCell>
        <mxCell id="RYP4-DE4dK7c4bQPlyVr-55" value="You lost, game over" style="ellipse;whiteSpace=wrap;html=1;fillColor=#f8cecc;strokeColor=#b85450;sketch=1;curveFitting=1;jiggle=2;" vertex="1" parent="1">
          <mxGeometry x="390" y="870" width="120" height="80" as="geometry" />
        </mxCell>
        <mxCell id="RYP4-DE4dK7c4bQPlyVr-67" value="No" style="edgeStyle=orthogonalEdgeStyle;rounded=0;orthogonalLoop=1;jettySize=auto;html=1;exitX=1;exitY=0.5;exitDx=0;exitDy=0;entryX=0;entryY=0.5;entryDx=0;entryDy=0;" edge="1" parent="1" source="RYP4-DE4dK7c4bQPlyVr-64" target="RYP4-DE4dK7c4bQPlyVr-25">
          <mxGeometry relative="1" as="geometry" />
        </mxCell>
        <mxCell id="RYP4-DE4dK7c4bQPlyVr-69" style="edgeStyle=orthogonalEdgeStyle;rounded=0;orthogonalLoop=1;jettySize=auto;html=1;exitX=0.5;exitY=1;exitDx=0;exitDy=0;entryX=0.5;entryY=0;entryDx=0;entryDy=0;" edge="1" parent="1" source="RYP4-DE4dK7c4bQPlyVr-64" target="RYP4-DE4dK7c4bQPlyVr-7">
          <mxGeometry relative="1" as="geometry" />
        </mxCell>
        <mxCell id="RYP4-DE4dK7c4bQPlyVr-70" value="Yes" style="edgeLabel;html=1;align=center;verticalAlign=middle;resizable=0;points=[];" vertex="1" connectable="0" parent="RYP4-DE4dK7c4bQPlyVr-69">
          <mxGeometry x="0.2696" y="-4" relative="1" as="geometry">
            <mxPoint as="offset" />
          </mxGeometry>
        </mxCell>
        <mxCell id="RYP4-DE4dK7c4bQPlyVr-64" value="&#xa;&lt;span style=&quot;color: rgb(0, 0, 0); font-family: Helvetica; font-size: 12px; font-style: normal; font-variant-ligatures: normal; font-variant-caps: normal; font-weight: 400; letter-spacing: normal; orphans: 2; text-align: center; text-indent: 0px; text-transform: none; widows: 2; word-spacing: 0px; -webkit-text-stroke-width: 0px; background-color: rgb(251, 251, 251); text-decoration-thickness: initial; text-decoration-style: initial; text-decoration-color: initial; float: none; display: inline !important;&quot;&gt;Do you want to play a game of Blackjack? Type &#39;y&#39; or &#39;n&#39;&lt;/span&gt;&#xa;&#xa;" style="rhombus;whiteSpace=wrap;html=1;rounded=0;sketch=1;curveFitting=1;jiggle=2;" vertex="1" parent="1">
          <mxGeometry x="140" y="5" width="180" height="110" as="geometry" />
        </mxCell>
        <mxCell id="RYP4-DE4dK7c4bQPlyVr-74" style="edgeStyle=orthogonalEdgeStyle;rounded=0;orthogonalLoop=1;jettySize=auto;html=1;exitX=1;exitY=0.5;exitDx=0;exitDy=0;entryX=0;entryY=0.5;entryDx=0;entryDy=0;" edge="1" parent="1" source="RYP4-DE4dK7c4bQPlyVr-71" target="RYP4-DE4dK7c4bQPlyVr-31">
          <mxGeometry relative="1" as="geometry" />
        </mxCell>
        <mxCell id="RYP4-DE4dK7c4bQPlyVr-76" value="Yes" style="edgeLabel;html=1;align=center;verticalAlign=middle;resizable=0;points=[];" vertex="1" connectable="0" parent="RYP4-DE4dK7c4bQPlyVr-74">
          <mxGeometry x="0.0667" y="-4" relative="1" as="geometry">
            <mxPoint as="offset" />
          </mxGeometry>
        </mxCell>
        <mxCell id="RYP4-DE4dK7c4bQPlyVr-75" style="edgeStyle=orthogonalEdgeStyle;rounded=0;orthogonalLoop=1;jettySize=auto;html=1;exitX=0.5;exitY=1;exitDx=0;exitDy=0;entryX=0.5;entryY=0;entryDx=0;entryDy=0;" edge="1" parent="1" source="RYP4-DE4dK7c4bQPlyVr-71" target="RYP4-DE4dK7c4bQPlyVr-22">
          <mxGeometry relative="1" as="geometry" />
        </mxCell>
        <mxCell id="RYP4-DE4dK7c4bQPlyVr-77" value="No" style="edgeLabel;html=1;align=center;verticalAlign=middle;resizable=0;points=[];" vertex="1" connectable="0" parent="RYP4-DE4dK7c4bQPlyVr-75">
          <mxGeometry x="-0.3333" y="3" relative="1" as="geometry">
            <mxPoint as="offset" />
          </mxGeometry>
        </mxCell>
        <mxCell id="RYP4-DE4dK7c4bQPlyVr-71" value="Do you want to draw another card" style="rhombus;whiteSpace=wrap;html=1;rounded=0;sketch=1;curveFitting=1;jiggle=2;" vertex="1" parent="1">
          <mxGeometry x="150" y="230" width="180" height="110" as="geometry" />
        </mxCell>
        <mxCell id="RYP4-DE4dK7c4bQPlyVr-82" value="No" style="edgeStyle=orthogonalEdgeStyle;rounded=0;orthogonalLoop=1;jettySize=auto;html=1;exitX=1;exitY=0.5;exitDx=0;exitDy=0;entryX=0;entryY=0.5;entryDx=0;entryDy=0;" edge="1" parent="1" source="RYP4-DE4dK7c4bQPlyVr-78" target="RYP4-DE4dK7c4bQPlyVr-81">
          <mxGeometry relative="1" as="geometry" />
        </mxCell>
        <mxCell id="RYP4-DE4dK7c4bQPlyVr-83" style="edgeStyle=orthogonalEdgeStyle;rounded=0;orthogonalLoop=1;jettySize=auto;html=1;exitX=0;exitY=0.5;exitDx=0;exitDy=0;entryX=0;entryY=0.5;entryDx=0;entryDy=0;" edge="1" parent="1" source="RYP4-DE4dK7c4bQPlyVr-78" target="RYP4-DE4dK7c4bQPlyVr-7">
          <mxGeometry relative="1" as="geometry" />
        </mxCell>
        <mxCell id="RYP4-DE4dK7c4bQPlyVr-84" value="Yes" style="edgeLabel;html=1;align=center;verticalAlign=middle;resizable=0;points=[];" vertex="1" connectable="0" parent="RYP4-DE4dK7c4bQPlyVr-83">
          <mxGeometry x="-0.8593" y="1" relative="1" as="geometry">
            <mxPoint as="offset" />
          </mxGeometry>
        </mxCell>
        <mxCell id="RYP4-DE4dK7c4bQPlyVr-78" value="Do You want to play another game" style="rhombus;whiteSpace=wrap;html=1;sketch=1;curveFitting=1;jiggle=2;" vertex="1" parent="1">
          <mxGeometry x="170" y="950" width="140" height="80" as="geometry" />
        </mxCell>
        <mxCell id="RYP4-DE4dK7c4bQPlyVr-81" value="Game Done" style="ellipse;whiteSpace=wrap;html=1;fillColor=#e1d5e7;strokeColor=#9673a6;shadow=0;sketch=1;curveFitting=1;jiggle=2;" vertex="1" parent="1">
          <mxGeometry x="470" y="950" width="120" height="80" as="geometry" />
        </mxCell>
      </root>
    </mxGraphModel>
  </diagram>
</mxfile>
